<svg id="visual" viewBox="0 0 900 600" width="900" height="600" xmlns="http://www.w3.org/2000/svg" xmlns:xlink="http://www.w3.org/1999/xlink" version="1.1"><g stroke-width="1" stroke-linejoin="bevel"><path d="M419 324L487 411L511 330Z" fill="#205a7a" stroke="#205a7a"></path><path d="M419 324L400 439L487 411Z" fill="#1d4e6b" stroke="#1d4e6b"></path><path d="M511 330L489 239L419 324Z" fill="#246688" stroke="#246688"></path><path d="M628 414L583 313L511 330Z" fill="#081a28" stroke="#081a28"></path><path d="M511 330L583 313L489 239Z" fill="#1d4e6b" stroke="#1d4e6b"></path><path d="M400 439L426 509L487 411Z" fill="#19435d" stroke="#19435d"></path><path d="M487 411L628 414L511 330Z" fill="#297ea6" stroke="#297ea6"></path><path d="M292 322L294 374L419 324Z" fill="#246688" stroke="#246688"></path><path d="M419 324L294 374L400 439Z" fill="#297ea6" stroke="#297ea6"></path><path d="M400 439L317 474L426 509Z" fill="#15384f" stroke="#15384f"></path><path d="M426 509L503 528L487 411Z" fill="#246688" stroke="#246688"></path><path d="M605 478L628 414L487 411Z" fill="#00101c" stroke="#00101c"></path><path d="M329 229L292 322L419 324Z" fill="#0c2435" stroke="#0c2435"></path><path d="M489 239L360 217L419 324Z" fill="#205a7a" stroke="#205a7a"></path><path d="M503 528L605 478L487 411Z" fill="#081a28" stroke="#081a28"></path><path d="M294 374L317 474L400 439Z" fill="#246688" stroke="#246688"></path><path d="M360 217L329 229L419 324Z" fill="#297ea6" stroke="#297ea6"></path><path d="M572 109L470 137L489 239Z" fill="#081a28" stroke="#081a28"></path><path d="M489 239L470 137L360 217Z" fill="#1d4e6b" stroke="#1d4e6b"></path><path d="M360 217L308 115L329 229Z" fill="#112e42" stroke="#112e42"></path><path d="M695 300L622 188L583 313Z" fill="#0c2435" stroke="#0c2435"></path><path d="M583 313L622 188L489 239Z" fill="#00101c" stroke="#00101c"></path><path d="M779 473L700 373L628 414Z" fill="#277297" stroke="#277297"></path><path d="M628 414L700 373L583 313Z" fill="#15384f" stroke="#15384f"></path><path d="M700 373L695 300L583 313Z" fill="#246688" stroke="#246688"></path><path d="M426 509L518 600L503 528Z" fill="#15384f" stroke="#15384f"></path><path d="M503 528L563 600L605 478Z" fill="#00101c" stroke="#00101c"></path><path d="M605 478L713 536L628 414Z" fill="#1d4e6b" stroke="#1d4e6b"></path><path d="M368 600L518 600L426 509Z" fill="#15384f" stroke="#15384f"></path><path d="M463 0L412 116L470 137Z" fill="#277297" stroke="#277297"></path><path d="M470 137L412 116L360 217Z" fill="#15384f" stroke="#15384f"></path><path d="M317 474L368 600L426 509Z" fill="#15384f" stroke="#15384f"></path><path d="M518 600L563 600L503 528Z" fill="#1d4e6b" stroke="#1d4e6b"></path><path d="M294 374L201 425L317 474Z" fill="#19435d" stroke="#19435d"></path><path d="M317 474L270 600L368 600Z" fill="#246688" stroke="#246688"></path><path d="M292 322L201 425L294 374Z" fill="#081a28" stroke="#081a28"></path><path d="M184 270L201 425L292 322Z" fill="#19435d" stroke="#19435d"></path><path d="M695 62L572 109L622 188Z" fill="#0c2435" stroke="#0c2435"></path><path d="M622 188L572 109L489 239Z" fill="#00101c" stroke="#00101c"></path><path d="M201 425L233 512L317 474Z" fill="#277297" stroke="#277297"></path><path d="M412 116L308 115L360 217Z" fill="#19435d" stroke="#19435d"></path><path d="M329 229L184 270L292 322Z" fill="#00101c" stroke="#00101c"></path><path d="M405 0L308 115L412 116Z" fill="#15384f" stroke="#15384f"></path><path d="M198 199L184 270L329 229Z" fill="#00101c" stroke="#00101c"></path><path d="M818 333L728 226L695 300Z" fill="#277297" stroke="#277297"></path><path d="M695 300L728 226L622 188Z" fill="#277297" stroke="#277297"></path><path d="M563 600L713 536L605 478Z" fill="#19435d" stroke="#19435d"></path><path d="M700 373L818 333L695 300Z" fill="#112e42" stroke="#112e42"></path><path d="M233 512L270 600L317 474Z" fill="#112e42" stroke="#112e42"></path><path d="M308 115L198 199L329 229Z" fill="#112e42" stroke="#112e42"></path><path d="M779 473L779 394L700 373Z" fill="#00101c" stroke="#00101c"></path><path d="M98 192L135 294L184 270Z" fill="#246688" stroke="#246688"></path><path d="M184 270L135 294L201 425Z" fill="#246688" stroke="#246688"></path><path d="M201 425L132 435L233 512Z" fill="#081a28" stroke="#081a28"></path><path d="M233 512L200 600L270 600Z" fill="#19435d" stroke="#19435d"></path><path d="M713 536L779 473L628 414Z" fill="#205a7a" stroke="#205a7a"></path><path d="M135 294L132 435L201 425Z" fill="#00101c" stroke="#00101c"></path><path d="M563 600L703 600L713 536Z" fill="#277297" stroke="#277297"></path><path d="M713 536L774 600L779 473Z" fill="#00101c" stroke="#00101c"></path><path d="M84 532L200 600L233 512Z" fill="#00101c" stroke="#00101c"></path><path d="M900 325L818 333L900 418Z" fill="#246688" stroke="#246688"></path><path d="M779 394L818 333L700 373Z" fill="#246688" stroke="#246688"></path><path d="M596 0L463 0L572 109Z" fill="#277297" stroke="#277297"></path><path d="M572 109L463 0L470 137Z" fill="#205a7a" stroke="#205a7a"></path><path d="M463 0L405 0L412 116Z" fill="#297ea6" stroke="#297ea6"></path><path d="M308 115L170 110L198 199Z" fill="#277297" stroke="#277297"></path><path d="M818 333L788 187L728 226Z" fill="#15384f" stroke="#15384f"></path><path d="M728 226L695 62L622 188Z" fill="#112e42" stroke="#112e42"></path><path d="M788 187L695 62L728 226Z" fill="#277297" stroke="#277297"></path><path d="M695 62L596 0L572 109Z" fill="#297ea6" stroke="#297ea6"></path><path d="M260 0L170 110L308 115Z" fill="#277297" stroke="#277297"></path><path d="M198 199L98 192L184 270Z" fill="#1d4e6b" stroke="#1d4e6b"></path><path d="M703 600L774 600L713 536Z" fill="#15384f" stroke="#15384f"></path><path d="M900 418L818 333L779 394Z" fill="#112e42" stroke="#112e42"></path><path d="M170 110L98 192L198 199Z" fill="#1d4e6b" stroke="#1d4e6b"></path><path d="M0 461L84 532L132 435Z" fill="#00101c" stroke="#00101c"></path><path d="M405 0L260 0L308 115Z" fill="#205a7a" stroke="#205a7a"></path><path d="M170 110L78 72L98 192Z" fill="#112e42" stroke="#112e42"></path><path d="M0 439L132 435L135 294Z" fill="#00101c" stroke="#00101c"></path><path d="M132 435L84 532L233 512Z" fill="#205a7a" stroke="#205a7a"></path><path d="M808 0L698 0L695 62Z" fill="#19435d" stroke="#19435d"></path><path d="M695 62L698 0L596 0Z" fill="#277297" stroke="#277297"></path><path d="M260 0L220 0L170 110Z" fill="#205a7a" stroke="#205a7a"></path><path d="M900 418L779 394L779 473Z" fill="#297ea6" stroke="#297ea6"></path><path d="M818 333L900 239L788 187Z" fill="#297ea6" stroke="#297ea6"></path><path d="M788 187L810 80L695 62Z" fill="#15384f" stroke="#15384f"></path><path d="M900 472L900 418L779 473Z" fill="#19435d" stroke="#19435d"></path><path d="M84 532L88 600L200 600Z" fill="#1d4e6b" stroke="#1d4e6b"></path><path d="M900 76L810 80L788 187Z" fill="#297ea6" stroke="#297ea6"></path><path d="M900 600L900 472L779 473Z" fill="#246688" stroke="#246688"></path><path d="M900 325L900 239L818 333Z" fill="#277297" stroke="#277297"></path><path d="M0 279L0 439L135 294Z" fill="#00101c" stroke="#00101c"></path><path d="M84 532L0 600L88 600Z" fill="#0c2435" stroke="#0c2435"></path><path d="M0 202L0 279L98 192Z" fill="#15384f" stroke="#15384f"></path><path d="M98 192L0 279L135 294Z" fill="#112e42" stroke="#112e42"></path><path d="M0 439L0 461L132 435Z" fill="#1d4e6b" stroke="#1d4e6b"></path><path d="M220 0L78 72L170 110Z" fill="#297ea6" stroke="#297ea6"></path><path d="M78 72L0 202L98 192Z" fill="#112e42" stroke="#112e42"></path><path d="M900 76L808 0L810 80Z" fill="#205a7a" stroke="#205a7a"></path><path d="M810 80L808 0L695 62Z" fill="#081a28" stroke="#081a28"></path><path d="M774 600L900 600L779 473Z" fill="#205a7a" stroke="#205a7a"></path><path d="M900 239L900 76L788 187Z" fill="#1d4e6b" stroke="#1d4e6b"></path><path d="M0 461L0 600L84 532Z" fill="#297ea6" stroke="#297ea6"></path><path d="M220 0L60 0L78 72Z" fill="#297ea6" stroke="#297ea6"></path><path d="M78 72L0 76L0 202Z" fill="#205a7a" stroke="#205a7a"></path><path d="M60 0L0 76L78 72Z" fill="#1d4e6b" stroke="#1d4e6b"></path><path d="M900 76L900 0L808 0Z" fill="#297ea6" stroke="#297ea6"></path><path d="M60 0L0 0L0 76Z" fill="#246688" stroke="#246688"></path></g></svg>